REM MD5 74198b42721a6b6d5d07d5ae9f82860e
FILE "Erlebe den Zauber von Disney auf der PlayStation (Germany).bin" BINARY
  TRACK 01 MODE2/2352
    INDEX 01 00:00:00
  TRACK 02 AUDIO
    INDEX 00 20:41:47
    INDEX 01 20:43:47
  TRACK 03 AUDIO
    INDEX 00 21:46:45
    INDEX 01 21:48:45
REM LEADOUT 24:50:02
